<svg width="27" height="27" viewBox="0 0 27 27" fill="none" xmlns="http://www.w3.org/2000/svg">
<path d="M13.6392 2.76855C12.2408 2.76855 10.8562 3.04398 9.56429 3.5791C8.27239 4.11422 7.09855 4.89856 6.10977 5.88733C4.11285 7.88425 2.991 10.5927 2.991 13.4167C2.991 18.1232 6.04702 22.1163 10.2743 23.5325C10.8068 23.6177 10.9771 23.2876 10.9771 23.0001V21.2005C8.02758 21.8394 7.39934 19.7737 7.39934 19.7737C6.90952 18.5385 6.21739 18.2084 6.21739 18.2084C5.24841 17.5482 6.29193 17.5695 6.29193 17.5695C7.35675 17.644 7.9211 18.6663 7.9211 18.6663C8.84749 20.2848 10.4128 19.8056 11.0197 19.5501C11.1155 18.8579 11.3924 18.3894 11.6905 18.1232C9.32666 17.857 6.84563 16.9413 6.84563 12.8843C6.84563 11.7024 7.25026 10.7547 7.94239 9.99866C7.83591 9.73246 7.46323 8.62505 8.04888 7.18754C8.04888 7.18754 8.94332 6.90004 10.9771 8.27366C11.8183 8.0394 12.7341 7.92227 13.6392 7.92227C14.5443 7.92227 15.46 8.0394 16.3012 8.27366C18.335 6.90004 19.2295 7.18754 19.2295 7.18754C19.8151 8.62505 19.4424 9.73246 19.3359 9.99866C20.0281 10.7547 20.4327 11.7024 20.4327 12.8843C20.4327 16.9519 17.941 17.8464 15.5665 18.1126C15.9498 18.4427 16.3012 19.0922 16.3012 20.0825V23.0001C16.3012 23.2876 16.4716 23.6283 17.0146 23.5325C21.242 22.1056 24.2873 18.1232 24.2873 13.4167C24.2873 12.0184 24.0119 10.6337 23.4768 9.34184C22.9417 8.04995 22.1573 6.8761 21.1686 5.88733C20.1798 4.89856 19.0059 4.11422 17.714 3.5791C16.4221 3.04398 15.0375 2.76855 13.6392 2.76855Z" fill="black"/>
</svg>
