<svg width="26" height="26" viewBox="0 0 26 26" fill="none" xmlns="http://www.w3.org/2000/svg">
<path d="M23.1598 0.598969H2.39584C1.92472 0.594175 1.47094 0.77647 1.13407 1.10585C0.797198 1.43524 0.604753 1.88481 0.598961 2.35592V23.2037C0.605801 23.6741 0.798706 24.1227 1.13546 24.4512C1.47222 24.7797 1.9254 24.9615 2.39584 24.9566H23.1598C23.6309 24.9604 24.0844 24.7775 24.4211 24.4479C24.7578 24.1183 24.9503 23.6688 24.9566 23.1977V2.34993C24.9482 1.8802 24.7548 1.43277 24.4183 1.1049C24.0818 0.777029 23.6295 0.595211 23.1598 0.598969Z" fill="#0076B2"/>
<path d="M4.20469 9.72915H7.82041V21.3629H4.20469V9.72915ZM6.01355 3.93921C6.42825 3.93921 6.83364 4.06221 7.17843 4.29265C7.52322 4.52309 7.79191 4.85061 7.95052 5.23379C8.10913 5.61696 8.15053 6.03857 8.06948 6.44528C7.98843 6.85199 7.78857 7.22552 7.49519 7.51862C7.20181 7.81172 6.82809 8.01122 6.4213 8.09189C6.01452 8.17255 5.59295 8.13075 5.20992 7.97177C4.8269 7.8128 4.49963 7.54379 4.26952 7.19879C4.03941 6.85378 3.9168 6.44828 3.91719 6.03357C3.91772 5.47793 4.13882 4.94522 4.53191 4.55251C4.92499 4.1598 5.45791 3.93921 6.01355 3.93921ZM10.0885 9.72915H13.5544V11.3264H13.6024C14.0855 10.412 15.2635 9.44764 17.0224 9.44764C20.6841 9.43965 21.3629 11.8495 21.3629 14.974V21.3629H17.7472V15.7028C17.7472 14.3551 17.7232 12.6201 15.8684 12.6201C14.0136 12.6201 13.6982 14.0896 13.6982 15.6149V21.3629H10.0885V9.72915Z" fill="white"/>
</svg>
