<svg width="21" height="21" viewBox="0 0 21 21" fill="none" xmlns="http://www.w3.org/2000/svg">
<g clip-path="url(#clip0_19_4)">
<path d="M10.4737 20.9123C16.1758 20.9123 20.7982 16.2898 20.7982 10.5877C20.7982 4.88565 16.1758 0.263184 10.4737 0.263184C4.77157 0.263184 0.149109 4.88565 0.149109 10.5877C0.149109 16.2898 4.77157 20.9123 10.4737 20.9123Z" fill="#405866"/>
<path d="M9.60575 20.3458C11.2561 20.3458 12.5941 19.0079 12.5941 17.3575C12.5941 15.7071 11.2561 14.3691 9.60575 14.3691C7.95535 14.3691 6.61743 15.7071 6.61743 17.3575C6.61743 19.0079 7.95535 20.3458 9.60575 20.3458Z" fill="#4F6977"/>
<path d="M13.6817 8.11416C13.6726 8.44477 13.5348 8.75877 13.2977 8.98939C13.0607 9.22 12.743 9.34903 12.4123 9.34903C12.0815 9.34903 11.7638 9.22 11.5268 8.98939C11.2897 8.75877 11.152 8.44477 11.1428 8.11416C11.1428 7.77749 11.2766 7.4546 11.5146 7.21654C11.7527 6.97847 12.0756 6.84473 12.4123 6.84473C12.7489 6.84473 13.0718 6.97847 13.3099 7.21654C13.548 7.4546 13.6817 7.77749 13.6817 8.11416Z" fill="#4F6977"/>
<path d="M2.04075 13.2637C2.72856 13.2637 3.28615 12.7062 3.28615 12.0183C3.28615 11.3305 2.72856 10.7729 2.04075 10.7729C1.35293 10.7729 0.795349 11.3305 0.795349 12.0183C0.795349 12.7062 1.35293 13.2637 2.04075 13.2637Z" fill="#4F6977"/>
<path d="M2.15303 7.02133C2.54576 7.02133 2.86413 6.70296 2.86413 6.31023C2.86413 5.91749 2.54576 5.59912 2.15303 5.59912C1.7603 5.59912 1.44193 5.91749 1.44193 6.31023C1.44193 6.70296 1.7603 7.02133 2.15303 7.02133Z" fill="#4F6977"/>
<path d="M5.78791 7.66042C6.40196 7.66042 6.89974 7.16264 6.89974 6.54859C6.89974 5.93455 6.40196 5.43677 5.78791 5.43677C5.17387 5.43677 4.67609 5.93455 4.67609 6.54859C4.67609 7.16264 5.17387 7.66042 5.78791 7.66042Z" fill="#4F6977"/>
<path d="M15.5688 3.7694C15.5688 3.97502 15.5283 4.17863 15.4496 4.3686C15.3709 4.55857 15.2556 4.73118 15.1102 4.87657C14.9648 5.02197 14.7922 5.13731 14.6022 5.21599C14.4123 5.29468 14.2087 5.33518 14.003 5.33518C13.7974 5.33518 13.5938 5.29468 13.4038 5.21599C13.2139 5.13731 13.0413 5.02197 12.8959 4.87657C12.7505 4.73118 12.6351 4.55857 12.5564 4.3686C12.4778 4.17863 12.4373 3.97502 12.4373 3.7694C12.4373 3.35413 12.6022 2.95586 12.8959 2.66222C13.1895 2.36858 13.5878 2.20361 14.003 2.20361C14.4183 2.20361 14.8166 2.36858 15.1102 2.66222C15.4039 2.95586 15.5688 3.35413 15.5688 3.7694Z" fill="#4F6977"/>
</g>
<defs>
<clipPath id="clip0_19_4">
<rect width="20.6491" height="20.6491" fill="white" transform="translate(0.149109 0.263184)"/>
</clipPath>
</defs>
</svg>
