<svg width="23" height="23" viewBox="0 0 23 23" fill="none" xmlns="http://www.w3.org/2000/svg">
<g clip-path="url(#clip0_31_74)">
<path d="M10.0117 1.62252C10.0117 1.62252 10.0117 0.37085 11.2632 0.37085C12.5146 0.37085 12.5146 1.62252 12.5146 1.62252V2.87418C12.5146 2.87418 12.5146 4.12585 11.2632 4.12585C10.0117 4.12585 10.0117 2.87418 10.0117 2.87418V1.62252ZM21.2749 10.3842C21.2749 10.3842 22.5263 10.3842 22.5263 11.6358C22.5263 12.8875 21.2749 12.8875 21.2749 12.8875H20.0234C20.0234 12.8875 18.7719 12.8875 18.7719 11.6358C18.7719 10.3842 20.0234 10.3842 20.0234 10.3842H21.2749ZM2.50292 10.3842C2.50292 10.3842 3.75439 10.3842 3.75439 11.6358C3.75439 12.8875 2.50292 12.8875 2.50292 12.8875H1.25146C1.25146 12.8875 0 12.8875 0 11.6358C0 10.3842 1.25146 10.3842 1.25146 10.3842H2.50292ZM5.70729 4.93505C5.70729 4.93505 6.59208 5.81998 5.70729 6.70491C4.82251 7.58984 3.93773 6.70491 3.93773 6.70491L3.05232 5.82061C3.05232 5.82061 2.16753 4.93568 3.05232 4.05012C3.93773 3.1652 4.82251 4.05012 4.82251 4.05012L5.70729 4.93505ZM18.8476 18.0776C18.8476 18.0776 19.7324 18.9625 18.8476 19.8474C17.9629 20.7323 17.0781 19.8474 17.0781 19.8474L16.1933 18.9625C16.1933 18.9625 15.3085 18.0776 16.1933 17.1926C17.0781 16.3077 17.9629 17.1926 17.9629 17.1926L18.8476 18.0776ZM18.5892 6.70491C18.5892 6.70491 17.7044 7.58984 16.8196 6.70491C15.9349 5.81998 16.8196 4.93505 16.8196 4.93505L17.7044 4.05012C17.7044 4.05012 18.5892 3.1652 19.474 4.05012C20.3588 4.93505 19.474 5.81998 19.474 5.81998L18.5892 6.70491ZM5.44887 19.8474C5.44887 19.8474 4.56408 20.7323 3.6793 19.8474C2.79451 18.9625 3.6793 18.0776 3.6793 18.0776L4.56408 17.1926C4.56408 17.1926 5.44887 16.3077 6.33365 17.1926C7.21843 18.0776 6.33365 18.9625 6.33365 18.9625L5.44887 19.8474ZM10.0117 20.3975C10.0117 20.3975 10.0117 19.1458 11.2632 19.1458C12.5146 19.1458 12.5146 20.3975 12.5146 20.3975V21.6492C12.5146 21.6492 12.5146 22.9009 11.2632 22.9009C10.0117 22.9009 10.0117 21.6492 10.0117 21.6492V20.3975Z" fill="#FFAC33"/>
<path d="M11.2632 17.8941C14.719 17.8941 17.5205 15.0922 17.5205 11.6358C17.5205 8.17939 14.719 5.37744 11.2632 5.37744C7.80735 5.37744 5.00586 8.17939 5.00586 11.6358C5.00586 15.0922 7.80735 17.8941 11.2632 17.8941Z" fill="#FFAC33"/>
</g>
<defs>
<clipPath id="clip0_31_74">
<rect width="22.5263" height="22.53" fill="white" transform="translate(0 0.37085)"/>
</clipPath>
</defs>
</svg>
