<svg width="23" height="25" viewBox="0 0 23 25" fill="none" xmlns="http://www.w3.org/2000/svg">
<g clip-path="url(#clip0_24_14)">
<path d="M16.8273 9.01967C18.391 10.1369 20.3066 10.7942 22.3755 10.7942V6.81516C21.9839 6.81531 21.5934 6.77446 21.2103 6.69327V9.82536C19.1416 9.82536 17.2262 9.1681 15.6622 8.05098V16.1712C15.6622 20.2333 12.3675 23.5261 8.30356 23.5261C6.7872 23.5261 5.37775 23.0679 4.20697 22.2821C5.54325 23.6477 7.40679 24.4949 9.46839 24.4949C13.5327 24.4949 16.8275 21.2021 16.8275 17.1398V9.01967H16.8273ZM18.2647 5.00529C17.4656 4.13271 16.9409 3.00505 16.8273 1.75834V1.24658H15.7232C16.0011 2.83109 16.9492 4.18478 18.2647 5.00529ZM6.7774 19.1649C6.33089 18.5799 6.08954 17.8641 6.09068 17.1281C6.09068 15.2703 7.59766 13.7639 9.45692 13.7639C9.80336 13.7637 10.1478 13.8169 10.478 13.9215V9.85349C10.0921 9.80066 9.70263 9.77814 9.31335 9.78643V12.9528C8.98293 12.8481 8.63836 12.7949 8.29175 12.7952C6.43258 12.7952 4.92568 14.3014 4.92568 16.1595C4.92568 17.4734 5.67888 18.6108 6.7774 19.1649Z" fill="#FF004F"/>
<path d="M15.6622 8.0509C17.2263 9.16802 19.1415 9.82527 21.2103 9.82527V6.69318C20.0555 6.44731 19.0333 5.84421 18.2647 5.00529C16.9491 4.1847 16.0011 2.831 15.7232 1.24658H12.823V17.1396C12.8164 18.9924 11.312 20.4926 9.45675 20.4926C8.36358 20.4926 7.3923 19.9718 6.77723 19.1649C5.67887 18.6108 4.92559 17.4733 4.92559 16.1596C4.92559 14.3017 6.43249 12.7953 8.29167 12.7953C8.64788 12.7953 8.9912 12.8507 9.31326 12.9528V9.78651C5.32065 9.86897 2.1097 13.1296 2.1097 17.1397C2.1097 19.1415 2.90927 20.9562 4.20705 22.2822C5.37782 23.0679 6.78719 23.5262 8.30364 23.5262C12.3677 23.5262 15.6623 20.2333 15.6623 16.1712L15.6622 8.0509Z" fill="black"/>
<path d="M21.2103 6.69304V5.84633C20.169 5.84784 19.1482 5.55637 18.2647 5.00522C19.0467 5.86099 20.0766 6.45112 21.2103 6.6932M15.7231 1.24643C15.6966 1.09504 15.6763 0.942632 15.6622 0.789592V0.277832H11.6577V16.171C11.6513 18.0237 10.1469 19.5239 8.29158 19.5239C7.76561 19.5246 7.24683 19.4017 6.77715 19.165C7.39221 19.9717 8.36349 20.4925 9.45667 20.4925C11.3118 20.4925 12.8164 18.9924 12.8229 17.1396V1.24652L15.7231 1.24643ZM9.31343 9.78636V8.88482C8.9788 8.83914 8.64145 8.81626 8.30372 8.81634C4.23928 8.81634 0.944611 12.1092 0.944611 16.171C0.944611 18.7176 2.23946 20.9619 4.20713 22.282C2.90936 20.9561 2.10978 19.1413 2.10978 17.1395C2.10978 13.1295 5.32065 9.86882 9.31343 9.78636Z" fill="#00F2EA"/>
</g>
<defs>
<clipPath id="clip0_24_14">
<rect width="21.4315" height="24.2778" fill="white" transform="translate(0.944611 0.277832)"/>
</clipPath>
</defs>
</svg>
